<?xml version="1.0" encoding="UTF-8"?>
<svg id="Calque_1" data-name="Calque 1" xmlns="http://www.w3.org/2000/svg" viewBox="0 0 201 28">
  <defs>
    <style>
      .cls-1 {
        fill: #fff;
      }
    </style>
  </defs>
  <path class="cls-1" d="m21.08,13.9c0,4.34-1.19,7.62-3.56,9.83-2.35,2.18-5.64,3.28-9.86,3.28H.49V1.3h7.92c2.59,0,4.84.48,6.73,1.44,1.9.96,3.36,2.38,4.39,4.25,1.03,1.85,1.55,4.15,1.55,6.91Zm-3.42.11c0-3.43-.85-5.94-2.56-7.52-1.68-1.61-4.07-2.41-7.16-2.41H3.73v20.16h3.49c6.96,0,10.44-3.41,10.44-10.22Zm24.55,13l-3.1-7.96h-10.19l-3.06,7.96h-3.28L32.64,1.19h2.92l10.01,25.81h-3.35Zm-4.07-10.84l-2.88-7.78c-.07-.19-.19-.54-.36-1.04-.17-.5-.34-1.02-.5-1.55-.14-.55-.26-.97-.36-1.26-.17.74-.36,1.48-.58,2.2-.22.7-.4,1.25-.54,1.66l-2.92,7.78h8.14Zm22.27,10.84l-8.46-22.54h-.14c.07.74.13,1.75.18,3.02.05,1.25.07,2.56.07,3.92v15.59h-2.99V1.3h4.79l7.92,21.06h.14L69.99,1.3h4.75v25.7h-3.2v-15.8c0-1.25.02-2.48.07-3.71.07-1.22.13-2.22.18-2.99h-.14l-8.57,22.5h-2.66Zm37.45,0l-3.1-7.96h-10.19l-3.06,7.96h-3.28L88.29,1.19h2.92l10.01,25.81h-3.35Zm-4.07-10.84l-2.88-7.78c-.07-.19-.19-.54-.36-1.04-.17-.5-.34-1.02-.5-1.55-.14-.55-.26-.97-.36-1.26-.17.74-.36,1.48-.58,2.2-.22.7-.4,1.25-.54,1.66l-2.92,7.78h8.14Zm31.52-2.27c0,4.34-1.19,7.62-3.56,9.83-2.35,2.18-5.64,3.28-9.86,3.28h-7.16V1.3h7.92c2.59,0,4.84.48,6.73,1.44,1.9.96,3.36,2.38,4.39,4.25,1.03,1.85,1.55,4.15,1.55,6.91Zm-3.42.11c0-3.43-.85-5.94-2.56-7.52-1.68-1.61-4.07-2.41-7.16-2.41h-4.21v20.16h3.49c6.96,0,10.44-3.41,10.44-10.22Zm24.55,13l-3.1-7.96h-10.19l-3.06,7.96h-3.28l10.04-25.81h2.92l10.01,25.81h-3.35Zm-4.07-10.84l-2.88-7.78c-.07-.19-.19-.54-.36-1.04-.17-.5-.34-1.02-.5-1.55-.14-.55-.26-.97-.36-1.26-.17.74-.36,1.48-.58,2.2-.22.7-.4,1.25-.54,1.66l-2.92,7.78h8.14Zm22.27,10.84l-8.46-22.54h-.14c.07.74.13,1.75.18,3.02.05,1.25.07,2.56.07,3.92v15.59h-2.99V1.3h4.79l7.92,21.06h.14l8.06-21.06h4.75v25.7h-3.2v-15.8c0-1.25.02-2.48.07-3.71.07-1.22.13-2.22.18-2.99h-.14l-8.57,22.5h-2.66Zm35.9-6.88c0,2.28-.83,4.06-2.48,5.33-1.66,1.27-3.89,1.91-6.7,1.91-1.44,0-2.77-.11-4-.32-1.22-.22-2.24-.52-3.06-.9v-3.1c.86.38,1.93.73,3.2,1.04,1.3.31,2.63.47,4,.47,1.92,0,3.36-.37,4.32-1.12.98-.74,1.48-1.75,1.48-3.02,0-.84-.18-1.55-.54-2.12s-.98-1.1-1.87-1.58c-.86-.5-2.08-1.03-3.64-1.58-2.18-.79-3.84-1.76-4.97-2.92-1.1-1.15-1.66-2.72-1.66-4.72,0-1.37.35-2.53,1.04-3.49.7-.98,1.66-1.74,2.88-2.27,1.25-.53,2.68-.79,4.28-.79,1.42,0,2.71.13,3.89.4,1.18.26,2.24.61,3.2,1.04l-1.01,2.77c-.89-.38-1.86-.71-2.92-.97-1.03-.26-2.11-.4-3.24-.4-1.61,0-2.82.35-3.64,1.04-.82.67-1.22,1.57-1.22,2.7,0,.86.18,1.58.54,2.16s.95,1.09,1.76,1.55c.82.46,1.92.95,3.31,1.48,1.51.55,2.78,1.15,3.82,1.8,1.06.62,1.85,1.38,2.38,2.27.55.89.83,2,.83,3.35Z"/>
</svg>