<svg width="24" height="18" viewBox="0 0 24 18" fill="none" xmlns="http://www.w3.org/2000/svg">
<path fill-rule="evenodd" clip-rule="evenodd" d="M20.868 3.47395H2.981L11.924 10.4894L20.868 3.47395ZM0 3.47395C0.00237401 2.73045 0.317205 2.01803 0.875737 1.49229C1.43427 0.96655 2.19112 0.670203 2.981 0.667969L20.868 0.667969C21.6579 0.670203 22.4147 0.96655 22.9733 1.49229C23.5318 2.01803 23.8466 2.73045 23.849 3.47395V14.6979C23.8466 15.4414 23.5318 16.1538 22.9733 16.6795C22.4147 17.2053 21.6579 17.5016 20.868 17.5039H2.981C2.19112 17.5016 1.43427 17.2053 0.875737 16.6795C0.317205 16.1538 0.00237401 15.4414 0 14.6979L0 3.47395Z" fill="#F8EEEF"/>
</svg>
